<svg xmlns="http://www.w3.org/2000/svg" viewBox="0 0 128 128" role="img" aria-label="ANTES Health logo">
  <defs><linearGradient id="g" x1="20" y1="14" x2="108" y2="116" gradientUnits="userSpaceOnUse"><stop stop-color="#99F6E4"/><stop offset="0.55" stop-color="#0F766E"/><stop offset="1" stop-color="#F97363"/></linearGradient></defs>
  <rect x="10" y="10" width="108" height="108" rx="34" fill="#FAF7F2"/>
  <rect x="10" y="10" width="108" height="108" rx="34" fill="url(#g)" opacity=".95"/>
  <path d="M34 84 58 35c2.2-4.4 8.5-4.4 10.7 0L94 84c1.9 3.8-.9 8.3-5.3 8.3h-7.5c-2.3 0-4.5-1.4-5.4-3.5l-4-9.2H55.2l-4 9.2c-.9 2.1-3.1 3.5-5.4 3.5h-6.9c-4.3 0-7.1-4.5-5-8.3Zm27.5-42.1L50.4 68h23.2L61.5 41.9Z" fill="#fff"/>
  <path d="M43 100c14-2 32-2 47 0" stroke="#fff" stroke-width="6" stroke-linecap="round" opacity=".9"/>
</svg>