<svg xmlns="http://www.w3.org/2000/svg" viewBox="0 0 840 620" role="img" aria-label="Sample preventive report mockup">
  <defs><filter id="s" x="-20%" y="-20%" width="140%" height="140%"><feDropShadow dx="0" dy="22" stdDeviation="22" flood-color="#1F2933" flood-opacity=".14"/></filter></defs>
  <rect width="840" height="620" rx="46" fill="#FAF7F2"/>
  <g filter="url(#s)">
    <rect x="82" y="54" width="676" height="512" rx="34" fill="#fff"/>
    <text x="122" y="110" font-family="Inter, Arial" font-size="27" font-weight="900" fill="#1F2933">Your preventive health report</text>
    <text x="122" y="140" font-family="Inter, Arial" font-size="15" fill="#667085">Sample design data · not medical advice</text>
    <rect x="122" y="180" width="180" height="122" rx="22" fill="#E8FBF7"/>
    <text x="148" y="220" font-family="Inter, Arial" font-size="15" font-weight="800" fill="#0F766E">HbA1c</text>
    <text x="148" y="267" font-family="Inter, Arial" font-size="38" font-weight="900" fill="#1F2933">5.7%</text>
    <text x="148" y="286" font-family="Inter, Arial" font-size="13" fill="#667085">watch trend</text>
    <rect x="330" y="180" width="180" height="122" rx="22" fill="#FFF4EF"/>
    <text x="356" y="220" font-family="Inter, Arial" font-size="15" font-weight="800" fill="#F97363">LDL-C</text>
    <text x="356" y="267" font-family="Inter, Arial" font-size="38" font-weight="900" fill="#1F2933">132</text>
    <text x="356" y="286" font-family="Inter, Arial" font-size="13" fill="#667085">context needed</text>
    <rect x="538" y="180" width="180" height="122" rx="22" fill="#F8FAFC"/>
    <text x="564" y="220" font-family="Inter, Arial" font-size="15" font-weight="800" fill="#0F766E">eGFR</text>
    <text x="564" y="267" font-family="Inter, Arial" font-size="38" font-weight="900" fill="#1F2933">95</text>
    <text x="564" y="286" font-family="Inter, Arial" font-size="13" fill="#667085">stable</text>
    <rect x="122" y="330" width="360" height="168" rx="26" fill="#fff" stroke="#E5E7EB" stroke-width="2"/>
    <text x="150" y="375" font-family="Inter, Arial" font-size="18" font-weight="900" fill="#1F2933">What changed</text>
    <path d="M150 456 C196 436 224 410 271 428 C322 447 345 466 385 436 C422 409 443 395 462 384" fill="none" stroke="#99F6E4" stroke-width="18" stroke-linecap="round" opacity=".34"/>
    <path d="M150 456 C196 436 224 410 271 428 C322 447 345 466 385 436 C422 409 443 395 462 384" fill="none" stroke="#0F766E" stroke-width="7" stroke-linecap="round"/>
    <circle cx="462" cy="384" r="9" fill="#F97363"/>
    <rect x="512" y="330" width="206" height="168" rx="26" fill="#1F2933"/>
    <text x="540" y="374" font-family="Inter, Arial" font-size="18" font-weight="900" fill="#fff">Next step</text>
    <text x="540" y="410" font-family="Inter, Arial" font-size="14" fill="#D1D5DB">Repeat check or</text>
    <text x="540" y="433" font-family="Inter, Arial" font-size="14" fill="#D1D5DB">talk to a clinician</text>
    <text x="540" y="456" font-family="Inter, Arial" font-size="14" fill="#D1D5DB">if trends continue.</text>
    <rect x="540" y="474" width="128" height="24" rx="12" fill="#99F6E4"/>
    <text x="557" y="492" font-family="Inter, Arial" font-size="12" font-weight="900" fill="#0A4D48">doctor-ready</text>
  </g>
</svg>